<svg xmlns="http://www.w3.org/2000/svg" viewBox="0 0 48 48">
  <path fill="#EA4335" d="M24 9.5c3.4 0 6.4 1.2 8.8 3.5l6.6-6.6C35.4 2.7 30.2.5 24 .5 14.8.5 6.8 5.8 2.9 13.5l7.7 6C12.4 13.6 17.7 9.5 24 9.5z"/>
  <path fill="#4285F4" d="M46.5 24.5c0-1.6-.1-3.1-.4-4.5H24v8.5h12.7c-.5 2.8-2.2 5.2-4.7 6.8l7.3 5.7c4.3-4 6.7-9.8 6.7-16.5z"/>
  <path fill="#FBBC05" d="M10.6 28.5c-.5-1.4-.8-2.9-.8-4.5s.3-3.1.8-4.5l-7.7-6C1.4 16.6.5 20.2.5 24s.9 7.4 2.4 10.5l7.7-6z"/>
  <path fill="#34A853" d="M24 47.5c6.2 0 11.4-2 15.3-6.5L32 35.3c-2 1.3-4.6 2.2-8 2.2-6.3 0-11.6-4.1-13.4-9.7l-7.7 6C6.8 42.2 14.8 47.5 24 47.5z"/>
</svg>
