<svg width="25.6" height="32" viewBox="0 0 25.6 32" fill="none" xmlns="http://www.w3.org/2000/svg">
  <defs>
    <clipPath id="cued-clip">
      <path d="M5 3H20.6A2 2 0 0 1 22.6 5V27A2 2 0 0 1 20.6 29H5A2 2 0 0 1 3 27V5A2 2 0 0 1 5 3Z" />
    </clipPath>
    <mask id="cued-mask">
      <path
        d="M5 0H20.6A5 5 0 0 1 25.6 5V27A5 5 0 0 1 20.6 32H5A5 5 0 0 1 0 27V5A5 5 0 0 1 5 0Z"
        fill="white"
      />
      <circle
        cx="22"
        cy="16"
        r="13"
        fill="black"
        clip-path="url(#cued-clip)"
      />
    </mask>
  </defs>
  <path
    d="M5 0H20.6A5 5 0 0 1 25.6 5V27A5 5 0 0 1 20.6 32H5A5 5 0 0 1 0 27V5A5 5 0 0 1 5 0Z"
    fill="black"
    mask="url(#cued-mask)"
  />
</svg>
